<mxfile host="app.diagrams.net" modified="2024-04-16T07:03:28.089Z" agent="Mozilla/5.0 (Windows NT 10.0; Win64; x64) AppleWebKit/537.36 (KHTML, like Gecko) Chrome/123.0.0.0 Safari/537.36" etag="QOCYQ03OajBJ3UqWV22V" version="24.2.5" type="device">
  <diagram name="Page-1" id="MCYBAP06bELJlcWTLo5f">
    <mxGraphModel dx="880" dy="434" grid="0" gridSize="1" guides="1" tooltips="1" connect="1" arrows="1" fold="1" page="1" pageScale="1" pageWidth="850" pageHeight="1100" background="#000000" math="0" shadow="0">
      <root>
        <mxCell id="0" />
        <mxCell id="1" parent="0" />
        <mxCell id="1rTlTTWgD1hm_3FV1yF--4" value="User" style="shape=umlLifeline;perimeter=lifelinePerimeter;whiteSpace=wrap;html=1;container=1;dropTarget=0;collapsible=0;recursiveResize=0;outlineConnect=0;portConstraint=eastwest;newEdgeStyle={&quot;curved&quot;:0,&quot;rounded&quot;:0};labelBackgroundColor=none;fillColor=#182E3E;strokeColor=#FFFFFF;fontColor=#FFFFFF;" vertex="1" parent="1">
          <mxGeometry x="178" y="53" width="100" height="300" as="geometry" />
        </mxCell>
        <mxCell id="1rTlTTWgD1hm_3FV1yF--7" value="Web Interface" style="shape=umlLifeline;perimeter=lifelinePerimeter;whiteSpace=wrap;html=1;container=1;dropTarget=0;collapsible=0;recursiveResize=0;outlineConnect=0;portConstraint=eastwest;newEdgeStyle={&quot;curved&quot;:0,&quot;rounded&quot;:0};labelBackgroundColor=none;fillColor=#182E3E;strokeColor=#FFFFFF;fontColor=#FFFFFF;" vertex="1" parent="1">
          <mxGeometry x="349" y="53" width="100" height="300" as="geometry" />
        </mxCell>
        <mxCell id="1rTlTTWgD1hm_3FV1yF--8" value="Prediction System" style="shape=umlLifeline;perimeter=lifelinePerimeter;whiteSpace=wrap;html=1;container=1;dropTarget=0;collapsible=0;recursiveResize=0;outlineConnect=0;portConstraint=eastwest;newEdgeStyle={&quot;curved&quot;:0,&quot;rounded&quot;:0};labelBackgroundColor=none;fillColor=#182E3E;strokeColor=#FFFFFF;fontColor=#FFFFFF;" vertex="1" parent="1">
          <mxGeometry x="538" y="58" width="100" height="300" as="geometry" />
        </mxCell>
        <mxCell id="1rTlTTWgD1hm_3FV1yF--9" value="&lt;font face=&quot;Times New Roman&quot; style=&quot;font-size: 12px; background-color: rgb(233, 231, 231);&quot;&gt;Input Data&lt;/font&gt;" style="html=1;verticalAlign=bottom;startArrow=oval;startFill=1;endArrow=block;startSize=8;curved=0;rounded=0;strokeColor=#6c8ebf;fillColor=#dae8fc;" edge="1" parent="1">
          <mxGeometry x="-0.014" width="60" relative="1" as="geometry">
            <mxPoint x="232" y="144" as="sourcePoint" />
            <mxPoint x="405" y="144" as="targetPoint" />
            <mxPoint as="offset" />
          </mxGeometry>
        </mxCell>
        <mxCell id="1rTlTTWgD1hm_3FV1yF--10" value="&lt;font face=&quot;Times New Roman&quot; style=&quot;font-size: 12px; background-color: rgb(233, 231, 231);&quot;&gt;Send Inputed Data&lt;/font&gt;" style="html=1;verticalAlign=bottom;startArrow=oval;startFill=1;endArrow=block;startSize=8;curved=0;rounded=0;strokeColor=#6c8ebf;fillColor=#dae8fc;" edge="1" parent="1">
          <mxGeometry x="-0.014" width="60" relative="1" as="geometry">
            <mxPoint x="399" y="170" as="sourcePoint" />
            <mxPoint x="588" y="170" as="targetPoint" />
            <mxPoint as="offset" />
          </mxGeometry>
        </mxCell>
        <mxCell id="1rTlTTWgD1hm_3FV1yF--13" value="SVM Model" style="shape=umlLifeline;perimeter=lifelinePerimeter;whiteSpace=wrap;html=1;container=1;dropTarget=0;collapsible=0;recursiveResize=0;outlineConnect=0;portConstraint=eastwest;newEdgeStyle={&quot;curved&quot;:0,&quot;rounded&quot;:0};labelBackgroundColor=none;fillColor=#182E3E;strokeColor=#FFFFFF;fontColor=#FFFFFF;" vertex="1" parent="1">
          <mxGeometry x="708" y="58" width="100" height="300" as="geometry" />
        </mxCell>
        <mxCell id="1rTlTTWgD1hm_3FV1yF--14" value="&lt;font face=&quot;Times New Roman&quot;&gt;&lt;span style=&quot;font-size: 12px; background-color: rgb(233, 231, 231);&quot;&gt;Load Trained Model&lt;/span&gt;&lt;/font&gt;" style="html=1;verticalAlign=bottom;startArrow=oval;startFill=1;endArrow=block;startSize=8;curved=0;rounded=0;strokeColor=#6c8ebf;fillColor=#dae8fc;" edge="1" parent="1" target="1rTlTTWgD1hm_3FV1yF--13">
          <mxGeometry x="-0.014" width="60" relative="1" as="geometry">
            <mxPoint x="586" y="202.5" as="sourcePoint" />
            <mxPoint x="753" y="203" as="targetPoint" />
            <mxPoint as="offset" />
          </mxGeometry>
        </mxCell>
        <mxCell id="1rTlTTWgD1hm_3FV1yF--15" value="Return Trained Model" style="html=1;verticalAlign=bottom;endArrow=open;dashed=1;endSize=8;curved=0;rounded=0;strokeColor=#23445D;" edge="1" parent="1" source="1rTlTTWgD1hm_3FV1yF--13">
          <mxGeometry relative="1" as="geometry">
            <mxPoint x="665" y="242" as="sourcePoint" />
            <mxPoint x="585" y="242" as="targetPoint" />
          </mxGeometry>
        </mxCell>
        <mxCell id="1rTlTTWgD1hm_3FV1yF--16" value="&lt;font face=&quot;Times New Roman&quot;&gt;&lt;span style=&quot;font-size: 12px; background-color: rgb(233, 231, 231);&quot;&gt;Predict DIabetes&lt;/span&gt;&lt;/font&gt;" style="html=1;verticalAlign=bottom;startArrow=oval;startFill=1;endArrow=block;startSize=8;curved=0;rounded=0;strokeColor=#6c8ebf;fillColor=#dae8fc;" edge="1" parent="1">
          <mxGeometry x="-0.014" width="60" relative="1" as="geometry">
            <mxPoint x="590" y="270" as="sourcePoint" />
            <mxPoint x="762" y="270.5" as="targetPoint" />
            <mxPoint as="offset" />
          </mxGeometry>
        </mxCell>
        <mxCell id="1rTlTTWgD1hm_3FV1yF--17" value="Return Prediction" style="html=1;verticalAlign=bottom;endArrow=open;dashed=1;endSize=8;curved=0;rounded=0;strokeColor=#23445D;" edge="1" parent="1">
          <mxGeometry relative="1" as="geometry">
            <mxPoint x="756" y="308" as="sourcePoint" />
            <mxPoint x="583" y="308" as="targetPoint" />
          </mxGeometry>
        </mxCell>
        <mxCell id="1rTlTTWgD1hm_3FV1yF--18" value="Send Prediction Result" style="html=1;verticalAlign=bottom;endArrow=open;dashed=1;endSize=8;curved=0;rounded=0;strokeColor=#23445D;entryX=0.49;entryY=0.907;entryDx=0;entryDy=0;entryPerimeter=0;" edge="1" parent="1" target="1rTlTTWgD1hm_3FV1yF--7">
          <mxGeometry relative="1" as="geometry">
            <mxPoint x="586" y="325" as="sourcePoint" />
            <mxPoint x="413" y="325" as="targetPoint" />
          </mxGeometry>
        </mxCell>
        <mxCell id="1rTlTTWgD1hm_3FV1yF--19" value="Display Result" style="html=1;verticalAlign=bottom;endArrow=open;dashed=1;endSize=8;curved=0;rounded=0;strokeColor=#23445D;" edge="1" parent="1" target="1rTlTTWgD1hm_3FV1yF--4">
          <mxGeometry relative="1" as="geometry">
            <mxPoint x="400" y="341" as="sourcePoint" />
            <mxPoint x="231" y="341" as="targetPoint" />
          </mxGeometry>
        </mxCell>
      </root>
    </mxGraphModel>
  </diagram>
</mxfile>
